<?xml version="1.0" encoding="utf-8"?>
<!-- Generator: Adobe Illustrator 20.1.0, SVG Export Plug-In . SVG Version: 6.00 Build 0)  -->
<svg version="1.1" id="Layer_1" xmlns="http://www.w3.org/2000/svg" xmlns:xlink="http://www.w3.org/1999/xlink" x="0px" y="0px"
	 viewBox="0 0 517.6 517.6" style="enable-background:new 0 0 517.6 517.6;" xml:space="preserve">
<style type="text/css">
	.st0{fill:#0399FF;stroke:#000000;stroke-miterlimit:10;}
	.st1{fill:#FFFFFF;}
</style>
<g>
	<circle class="st0" cx="258.8" cy="258.8" r="258.3"/>
	<path class="st1" d="M406.2,211.6c-0.1-0.4-0.1-0.7-0.2-1.1c-0.1-0.2-0.1-0.4-0.2-0.6c-0.1-0.3-0.2-0.6-0.3-0.9
		c-0.1-0.2-0.2-0.4-0.3-0.6c-0.1-0.3-0.3-0.6-0.4-0.8c-0.1-0.2-0.2-0.4-0.4-0.6c-0.3-0.5-0.6-0.9-1-1.3c-0.2-0.2-0.4-0.5-0.6-0.7
		c-0.2-0.2-0.3-0.3-0.5-0.5c-0.2-0.2-0.5-0.4-0.7-0.6c-0.2-0.1-0.4-0.3-0.6-0.4c-0.1-0.1-0.1-0.1-0.2-0.2l-134.9-90
		c-4.3-2.8-9.8-2.8-14.1,0l-135,90c-0.1,0-0.1,0.1-0.2,0.2c-0.2,0.1-0.4,0.3-0.6,0.4c-0.2,0.2-0.5,0.4-0.7,0.6
		c-0.2,0.2-0.3,0.3-0.5,0.5c-0.2,0.2-0.4,0.4-0.6,0.7c-0.1,0.2-0.3,0.4-0.4,0.6c-0.2,0.3-0.4,0.5-0.5,0.8c-0.1,0.2-0.2,0.4-0.4,0.6
		c-0.2,0.3-0.3,0.6-0.4,0.8c-0.1,0.2-0.2,0.4-0.3,0.6c-0.1,0.3-0.2,0.6-0.3,0.9c-0.1,0.2-0.1,0.4-0.2,0.6c-0.1,0.3-0.2,0.7-0.2,1.1
		c0,0.2-0.1,0.4-0.1,0.5c-0.1,0.5-0.1,1.1-0.1,1.7v90c0,0.6,0,1.1,0.1,1.7c0,0.2,0.1,0.4,0.1,0.5c0.1,0.4,0.1,0.7,0.2,1.1
		c0.1,0.2,0.1,0.4,0.2,0.6c0.1,0.3,0.2,0.6,0.3,0.9c0.1,0.2,0.2,0.4,0.3,0.6c0.1,0.3,0.3,0.6,0.4,0.8c0.1,0.2,0.2,0.4,0.4,0.6
		c0.2,0.3,0.4,0.5,0.6,0.8c0.1,0.2,0.3,0.4,0.4,0.5c0.2,0.2,0.4,0.5,0.6,0.7c0.2,0.2,0.3,0.4,0.5,0.5c0.2,0.2,0.5,0.4,0.7,0.6
		c0.2,0.2,0.4,0.3,0.6,0.4c0.1,0,0.1,0.1,0.2,0.2l134.9,90c2.1,1.4,4.5,2.1,7,2.1c2.5,0,5-0.7,7-2.1l135-90c0.1,0,0.1-0.1,0.2-0.2
		c0.2-0.1,0.4-0.3,0.6-0.4c0.2-0.2,0.5-0.4,0.7-0.6c0.2-0.2,0.3-0.3,0.5-0.5c0.4-0.4,0.7-0.8,1.1-1.2c0.2-0.3,0.4-0.5,0.5-0.8
		c0.1-0.2,0.2-0.4,0.4-0.6c0.2-0.3,0.3-0.6,0.4-0.8c0.1-0.2,0.2-0.4,0.3-0.6c0.1-0.3,0.2-0.6,0.3-0.9c0.1-0.2,0.1-0.4,0.2-0.6
		c0.1-0.3,0.2-0.7,0.2-1.1c0-0.2,0.1-0.4,0.1-0.5c0.1-0.5,0.1-1.1,0.1-1.7v-90c0-0.6,0-1.1-0.1-1.7
		C406.3,212,406.2,211.8,406.2,211.6L406.2,211.6L406.2,211.6z M258.8,288.8l-44.9-30l44.9-30l44.9,30L258.8,288.8z M246.1,206.7
		l-55,36.8l-44.4-29.7l99.4-66.3L246.1,206.7L246.1,206.7z M168.3,258.8L136.5,280v-42.5L168.3,258.8z M191.1,274.1l55,36.8V370
		l-99.4-66.3L191.1,274.1L191.1,274.1L191.1,274.1z M271.5,310.9l55-36.8l44.4,29.7L271.5,370V310.9L271.5,310.9z M349.3,258.8
		l31.7-21.2V280L349.3,258.8L349.3,258.8L349.3,258.8z M326.5,243.5l-55-36.8v-59.2l99.4,66.3L326.5,243.5L326.5,243.5z"/>
</g>
</svg>
