<?xml version="1.0" encoding="utf-8"?>
<!-- Generator: Adobe Illustrator 20.1.0, SVG Export Plug-In . SVG Version: 6.00 Build 0)  -->
<svg version="1.1" id="Layer_1" xmlns="http://www.w3.org/2000/svg" xmlns:xlink="http://www.w3.org/1999/xlink" x="0px" y="0px"
	 viewBox="0 0 563 563" style="enable-background:new 0 0 563 563;" xml:space="preserve">
<g>
	<g>
		<path d="M105,462c-30.9,0-56,25.1-56,56c0,4.4,3.6,8,8,8h96c4.4,0,8-3.6,8-8C161,487.1,135.9,462,105,462z M65.8,510
			c3.2-15.6,15.6-27.9,31.2-31.1V494h16v-15.1c15.6,3.2,28,15.5,31.2,31.1H65.8z"/>
	</g>
</g>
<g>
	<g>
		<path d="M521,390h-14c-0.4-1.1-0.9-2.2-1.4-3.3l9.9-9.9c3.1-3.1,3.1-8.2,0-11.3l-33.9-33.9c-1.7-1.7-3.8-2.4-6-2.3
			c12.7-6.7,21.4-19.9,21.4-35.2V86c0-22.1-17.9-40-40-40H89c-22.1,0-40,17.9-40,40v208c0,22.1,17.9,40,40,40h104.4l-30.2,56H161
			h-12c-15.4,0-28,12.6-28,28s12.6,28,28,28h172c0,4.4,3.6,8,8,8h14c0.4,1.1,0.9,2.2,1.4,3.3l-9.9,9.9c-3.1,3.1-3.1,8.2,0,11.3
			l33.9,33.9c3.1,3.1,8.2,3.1,11.3,0l9.9-9.9c1.1,0.5,2.2,1,3.3,1.4v14c0,4.4,3.6,8,8,8h48c4.4,0,8-3.6,8-8v-14
			c1.1-0.4,2.2-0.9,3.3-1.4l9.9,9.9c3.1,3.1,8.2,3.1,11.3,0l33.9-33.9c3.1-3.1,3.1-8.2,0-11.3l-9.9-9.9c0.5-1.1,1-2.2,1.4-3.3h14
			c4.4,0,8-3.6,8-8v-48C529,393.6,525.4,390,521,390z M65,86c0-13.2,10.8-24,24-24h368c13.2,0,24,10.8,24,24v168H65V86z M89,318
			c-13.2,0-24-10.8-24-24v-24h416v24c0,13.2-10.8,24-24,24h-8h-48h-61.8H206.8H89z M470.2,331.6l-9.8,9.8c-1.1-0.5-2.2-1-3.3-1.4v-6
			C461.6,334,466,333.1,470.2,331.6z M393,334v6c-1.1,0.4-2.2,0.9-3.3,1.4l-7.4-7.4H393z M365.9,334l-6.9,6.9l-4.7-6.9H365.9z
			 M321,430H149c-6.6,0-12-5.4-12-12s5.4-12,12-12h12h6.9H321V430z M181.4,390l30.2-56H335l12.5,18.4l-13,13
			c-3.1,3.1-3.1,8.2,0,11.3l9.9,9.9c-0.5,1.1-1,2.2-1.4,3.3h-14H181.4z M513,438h-11.7c-3.5,0-6.6,2.3-7.6,5.6
			c-1.2,3.9-2.9,7.8-4.9,11.7c-1.6,3.1-1,6.9,1.4,9.4l8.3,8.3l-22.6,22.6l-8.3-8.3c-2.5-2.5-6.3-3-9.4-1.4c-3.9,2-7.8,3.7-11.7,4.9
			c-3.3,1.1-5.6,4.1-5.6,7.6V510h-32v-11.7c0-3.5-2.3-6.6-5.6-7.6c-3.9-1.2-7.8-2.9-11.7-4.9c-3.1-1.6-6.9-1-9.4,1.4l-8.3,8.3
			l-22.6-22.6l8.3-8.3c2.5-2.5,3.1-6.3,1.4-9.4c-2-3.9-3.7-7.8-4.9-11.7c-1.1-3.3-4.1-5.6-7.6-5.6H337v-32h11.7
			c3.5,0,6.6-2.3,7.6-5.6c1.2-3.9,2.9-7.8,4.9-11.7c1.6-3.1,1-6.9-1.4-9.4l-8.3-8.3l22.6-22.6l8.3,8.3c2.5,2.5,6.3,3.1,9.4,1.4
			c3.9-2,7.8-3.7,11.7-4.9c3.3-1.1,5.6-4.1,5.6-7.6V334h32v11.7c0,3.5,2.3,6.6,5.6,7.6c3.9,1.2,7.8,2.9,11.7,4.9
			c3.1,1.6,6.9,1,9.4-1.4l8.3-8.3l22.6,22.6l-8.3,8.3c-2.5,2.5-3.1,6.3-1.4,9.4c2,3.9,3.7,7.8,4.9,11.7c1.1,3.3,4.1,5.6,7.6,5.6H513
			V438z"/>
	</g>
</g>
<g>
	<g>
		<path d="M425,374c-26.5,0-48,21.5-48,48s21.5,48,48,48s48-21.5,48-48S451.5,374,425,374z M425,454c-17.6,0-32-14.4-32-32
			s14.4-32,32-32s32,14.4,32,32S442.6,454,425,454z"/>
	</g>
</g>
<g>
	<g>
		<path d="M206.7,107.7l-11.3-11.3l-56,56c-3.1,3.1-3.1,8.2,0,11.3l56,56l11.3-11.3L156.3,158L206.7,107.7z"/>
	</g>
</g>
<g>
	<g>
		<path d="M382.7,152.3l-56-56l-11.3,11.3l50.3,50.3l-50.3,50.3l11.3,11.3l56-56C385.8,160.5,385.8,155.5,382.7,152.3z"/>
	</g>
</g>
<g>
	<g>
		<rect x="180.5" y="142" transform="matrix(0.4472 -0.8944 0.8944 0.4472 10.0816 316.3591)" width="161" height="16"/>
	</g>
</g>
<g>
	<g>
		<rect x="361" y="206" width="16" height="16"/>
	</g>
</g>
<g>
	<g>
		<rect x="393" y="206" width="16" height="16"/>
	</g>
</g>
<g>
	<g>
		<rect x="425" y="206" width="16" height="16"/>
	</g>
</g>
</svg>
